<?xml version="1.0" encoding="UTF-8"?>
<svg id="Link" xmlns="http://www.w3.org/2000/svg" xmlns:xlink="http://www.w3.org/1999/xlink" viewBox="170 338 740 408">
  <defs>
    <style>
      .cls-1 {
        fill: #fff;
      }

      .cls-1, .cls-2, .cls-3, .cls-4, .cls-5, .cls-6 {
        stroke-width: 0px;
      }

      .cls-1, .cls-2, .cls-4, .cls-5 {
        fill-rule: evenodd;
      }

      .cls-2, .cls-6 {
        fill: #1a1818;
      }

      .cls-3 {
        fill: none;
      }

      .cls-4 {
        fill: #fb9335;
      }

      .cls-5 {
        fill: #c7c9cb;
      }

      .cls-7 {
        clip-path: url(#clippath);
      }
    </style>
    <clipPath id="clippath">
      <rect class="cls-3" x="17.24" y="-9.55" width="1069.74" height="1069.74"/>
    </clipPath>
  </defs>
  <g id="Camada_9" data-name="Camada 9">
    <g class="cls-7">
      <g id="Link_logo_500px_" data-name="Link logo 500px ">
        <g id="Grupo_10" data-name="Grupo 10">
          <path id="Caminho_8" data-name="Caminho 8" class="cls-1" d="M875.03,738.19h-205.16v-61.98h-280.84c-4.51,6.48-10.29,11.97-17,16.13-26.94,16.71-62.32,8.41-79.02-18.52-.02-.03-.04-.07-.06-.1-66.7-12.8-114.99-71.03-115.24-138.94v-196.86h510.98c4.48-6.64,10.28-12.28,17.05-16.56,26.8-16.94,62.25-8.95,79.19,17.84.27.42.53.85.78,1.28,66.52,12.96,114.62,71.11,114.87,138.88v136.37h25.95v70.97c-.06,28.41-23.08,51.43-51.5,51.5h0Z"/>
          <g id="Grupo_9" data-name="Grupo 9">
            <path id="Caminho_9" data-name="Caminho 9" class="cls-5" d="M674.28,350.87c-18.6,5.94-34.29,18.66-43.95,35.64H226.29v148.23c.13,38.66,24.09,73.23,60.25,86.92-4.61,11.71-5.39,24.58-2.24,36.76-55.29-15.75-93.49-66.19-93.65-123.69v-183.87h483.63ZM794.06,355.72c55.25,15.78,93.4,66.2,93.56,123.66v134.44h-35.64v-134.43c-.13-38.78-24.25-73.44-60.57-87.04,4.71-11.63,5.64-24.44,2.64-36.62ZM668.12,663.26c1.05-13.69,7.33-26.46,17.54-35.64h-190.7c-10.1,17.35-26.52,30.12-45.82,35.64h218.98Z"/>
            <g id="Grupo_8" data-name="Grupo 8">
              <path id="Caminho_10" data-name="Caminho 10" class="cls-2" d="M394.05,583.46h-57.47c-43.47,0-63.95-29.97-63.95-69.39v-79.1h31.86v72.05c0,21.36,9.26,45.19,32.09,45.19h57.47v31.25Z"/>
              <rect id="Retângulo_6" data-name="Retângulo 6" class="cls-6" x="411.1" y="434.97" width="31.86" height="148.49"/>
              <path id="Caminho_11" data-name="Caminho 11" class="cls-2" d="M806.01,581.31l-91.34-36.13v32.91h-31.86v-144.18h31.86v35.16l91.34-36.25v34.55l-78.76,33.55c-8.51,3.63-8.47,8.43,0,12.11l78.76,34.29v34Z"/>
            </g>
            <path id="Caminho_12" data-name="Caminho 12" class="cls-4" d="M341.79,598.94c15.73,0,30.3,8.29,38.32,21.82h47.8c17.72,0,32.09-14.37,32.09-32.09l-.08-140.23c-.05-38.69,35.43-62.05,68.42-49.35,14.48,5.58,27.53,17.83,34.32,37.65l43.14,125.88c4.47,13.05,14.44,13.91,14.44,3.05v-141.51c.32-42.7,35.11-77.09,77.81-76.93,12.55-21.16,39.87-28.15,61.04-15.6s28.15,39.87,15.6,61.04c-12.55,21.16-39.87,28.15-61.04,15.6-6.43-3.81-11.79-9.17-15.6-15.6-17.71-.17-32.21,14.06-32.37,31.77,0,.11,0,.21,0,.32v140.91c0,38.6-35.57,62.11-68.63,49.34-14.41-5.56-27.4-17.81-34.2-37.65l-43.14-125.87c-4.6-13.44-14.54-13.59-14.53-3.04l.26,140.23c0,42.81-34.71,77.52-77.52,77.52h-47.81c-12.55,21.16-39.87,28.15-61.04,15.6-21.16-12.55-28.15-39.87-15.6-61.04,8.02-13.53,22.59-21.83,38.32-21.83h0Z"/>
            <path id="Caminho_13" data-name="Caminho 13" class="cls-2" d="M682.81,725.24h192.13c21.31-.06,38.56-17.32,38.62-38.63v-57.94h-192.13c-21.31.06-38.56,17.32-38.63,38.63v57.94h0ZM741.58,684.21h-14.65c-8.2,0-10.64,6.85-9.55,12.53v14.67h-15v-22.85c0-11.41,6.1-19.23,18-19.23h18.67c7.4,0,7.06-12.28,0-12.28h-36.67v-14.55h39.19c24.85,0,24.74,41.71,0,41.71h.01ZM825.09,711.41l-43.36-17.13v17.13h-15v-22.85c0-11.4,6.09-19.23,18-19.23h18.67c7.4,0,7.06-12.28,0-12.28h-36.67v-14.55h39.2c24.85,0,24.73,41.71,0,41.71h-9.48l28.64,10.95v16.25h0ZM874.5,711.41h-22.52c-34.65,0-33.26-68.91,0-68.91h22.52c33.18,0,34.77,68.91,0,68.91h0ZM871.96,696.47h-17.44c-15.19,0-16.01-39.42,0-39.42h17.44c16.06,0,15.08,39.42,0,39.42h0Z"/>
          </g>
        </g>
      </g>
    </g>
  </g>
</svg>