<svg id="logo-bin" xmlns="http://www.w3.org/2000/svg" width="89.209" height="60" viewBox="0 0 89.209 60">
  <path id="Caminho_21150" data-name="Caminho 21150" d="M30.8,38.342c0-.963-.16-2.406-.321-4.171a16.321,16.321,0,0,0-1.444-5.294,13.791,13.791,0,0,0-3.529-4.652A9.709,9.709,0,0,0,19.25,22.3a11.451,11.451,0,0,0-4.973.963,13.38,13.38,0,0,0-3.369,2.567,15.722,15.722,0,0,0-2.085,3.529A34.844,34.844,0,0,0,7.7,33.209c-.16,1.283-.16,2.406-.321,3.369v4.171A24.113,24.113,0,0,0,7.7,43.957a14.466,14.466,0,0,0,.962,3.529,11.541,11.541,0,0,0,1.925,3.369A9.919,9.919,0,0,0,13.8,53.262a10.713,10.713,0,0,0,4.812.963,9.953,9.953,0,0,0,5.935-1.6,11.088,11.088,0,0,0,3.69-4.011,28.155,28.155,0,0,0,1.925-5.134A18.772,18.772,0,0,0,30.8,38.342ZM7.54,24.064a19.652,19.652,0,0,1,1.283-1.925,8.509,8.509,0,0,1,2.406-2.406,11.679,11.679,0,0,1,4.01-1.925,20.4,20.4,0,0,1,5.935-.8,26.233,26.233,0,0,1,6.737.963,13.514,13.514,0,0,1,6.417,4.171c.481.642.962,1.283,1.6,2.246a11.959,11.959,0,0,1,1.6,3.209,17.115,17.115,0,0,1,1.123,4.332,31.691,31.691,0,0,1,.481,5.936,29.833,29.833,0,0,1-1.123,9.465,22.893,22.893,0,0,1-2.727,5.615,14.28,14.28,0,0,1-6.256,5.294A20.253,20.253,0,0,1,20.854,60a22.154,22.154,0,0,1-4.01-.481,12,12,0,0,1-5.133-2.246,12.217,12.217,0,0,1-2.567-2.246A20.042,20.042,0,0,0,7.7,53.1l-.16,6.257H0l.16-7.38V0H7.54Z" fill="#f60"/>
  <path id="Caminho_21151" data-name="Caminho 21151" d="M26.2,11.3h7.7V52.687H26.2Z" transform="translate(15.833 6.832)" fill="#f60"/>
  <path id="Caminho_21152" data-name="Caminho 21152" d="M33.36,16.414,33.2,11.6h7.7l.16,6.737a14.05,14.05,0,0,1,1.123-1.925,10.275,10.275,0,0,1,2.246-2.406,14.333,14.333,0,0,1,3.85-2.246,15.849,15.849,0,0,1,5.935-.962,20.7,20.7,0,0,1,3.85.481A15.935,15.935,0,0,1,63.037,13.2a15.185,15.185,0,0,1,4.331,4.171,14.553,14.553,0,0,1,1.764,7.539V52.989h-7.86V26.681a14.038,14.038,0,0,0-.481-3.85,6.368,6.368,0,0,0-1.765-3.208,9.159,9.159,0,0,0-3.369-2.085,10.785,10.785,0,0,0-3.85-.642,11.17,11.17,0,0,0-4.01.8,9.555,9.555,0,0,0-3.369,2.246,13.113,13.113,0,0,0-2.406,3.85,14.389,14.389,0,0,0-.963,5.454V52.989h-7.7Z" transform="translate(20.066 6.53)" fill="#f60"/>
  <path id="Caminho_21153" data-name="Caminho 21153" d="M25.6.1h9.3V9.4H25.6Z" transform="translate(15.471 0.06)" fill="#f60"/>
</svg>
