<svg xmlns="http://www.w3.org/2000/svg" width="282.678" height="60" viewBox="0 0 282.678 60">
  <path id="Caminho_23463" data-name="Caminho 23463" d="M85.5,91C66.194,91,56,78.485,56,60.922c0-19.134,11.184-29.906,30.575-29.906a49.871,49.871,0,0,1,16.078,2.234,36.053,36.053,0,0,1-1.66,8.368A44.852,44.852,0,0,0,86.575,39.3c-13.59,0-20.962,7.709-20.962,21.295,0,14.83,7.952,22.118,20.552,22.118a40.342,40.342,0,0,0,7.625-.826V58.438h9.276V87.932A49.954,49.954,0,0,1,85.83,91Zm168.725-.338c-15.25,0-22.622-8.45-22.622-22.617,0-12.344,5.717-22.118,20.217-22.118,13.014,0,18.65,8.531,18.648,18.969a49.051,49.051,0,0,1-.5,7.043H240.882c1.162,7.371,5.473,10.937,13.59,10.937a35.554,35.554,0,0,0,14.586-3.15c-.328,2.4-.826,5.554-1.408,8.286a31.35,31.35,0,0,1-12.638,2.66C254.751,90.671,254.487,90.668,254.225,90.661Zm-13.5-26.347h20.541c0-6.8-3.641-10.771-9.941-10.771C244.861,53.544,241.465,57.272,240.72,64.315Zm51.71,26.352c-8.862,0-14.5-4.057-14.5-14.167V33a31.641,31.641,0,0,1,9.115-1.325V47.33h14.415a69.536,69.536,0,0,1-.827,7.787l-13.587.007v20.3c0,5.39,2.651,7.459,7.044,7.459a20.669,20.669,0,0,0,7.126-1.244c-.252,2.487-.58,5.306-1.079,7.706a20.647,20.647,0,0,1-7.291,1.33C292.709,90.671,292.57,90.67,292.431,90.667Zm-120.244,0c-8.863,0-14.5-4.057-14.5-14.167V33a31.639,31.639,0,0,1,9.114-1.325V47.33h14.416a69.322,69.322,0,0,1-.827,7.787l-13.587.007v20.3c0,5.39,2.651,7.459,7.043,7.459a20.669,20.669,0,0,0,7.126-1.244c-.252,2.487-.579,5.306-1.079,7.706a20.642,20.642,0,0,1-7.29,1.33C172.464,90.671,172.325,90.67,172.186,90.667Zm-38.2-.012c-15.249,0-22.621-8.451-22.621-22.618,0-12.343,5.717-22.118,20.217-22.118v.007c13.009,0,18.646,8.531,18.647,18.962a49.046,49.046,0,0,1-.5,7.043H120.641c1.162,7.372,5.473,10.937,13.59,10.937a35.568,35.568,0,0,0,14.586-3.149c-.329,2.4-.827,5.554-1.408,8.286a31.364,31.364,0,0,1-12.643,2.66Q134.376,90.665,133.984,90.655ZM120.47,64.309h20.541c0-6.8-3.641-10.772-9.941-10.772C124.611,53.537,121.215,57.266,120.47,64.309Zm94.964,25.37V63.415c0-6.549-2.152-9.7-11.267-9.7a45.435,45.435,0,0,0-7.208.662V89.672h-9.114V48.248a77.355,77.355,0,0,1,16.574-2.322c15.251,0,20.137,5.881,20.13,15.908V89.679ZM324.72,55.124V50.473h4.652v4.651Zm-9.3,0V50.473h4.652v4.651Zm18.6-.014v-4.65h4.652v4.65Zm-9.305-9.284V41.167h4.652v4.659Zm-9.3-.008V41.167h4.652v4.651Zm18.6-.006V41.167h4.652v4.645Zm-.005-9.288V31.873h4.652v4.651Zm-18.6,0V31.869h4.652V36.52Zm9.305-.006-.005-4.651h4.657v4.651Z" transform="translate(-56 -31)" fill="#ec0000"/>
</svg>
