<svg xmlns="http://www.w3.org/2000/svg" width="244.795" height="59.854" viewBox="0 0 244.795 59.854">
  <g id="Grupo_4124" data-name="Grupo 4124" transform="translate(-2639.891 -0.001)">
    <path id="Caminho_23674" data-name="Caminho 23674" d="M19109.473,3459.24h10.225l8.254,17.8,8.939-17.8h9.469l-18.408,35.374Zm35.436,16.668c0-9.772,7.652-17.347,18.1-17.347s17.271,7.575,17.271,17.347v2.5h-26.662a10.522,10.522,0,0,0,10.148,7.5,10.061,10.061,0,0,0,7.652-3.258l5.15,6.134a20.054,20.054,0,0,1-12.8,4.467C19153.316,3493.251,19144.908,3485.68,19144.908,3475.908Zm9.469-4.621h16.74a8.64,8.64,0,0,0-8.105-5.378A9.441,9.441,0,0,0,19154.377,3471.287Zm-81.176,4.621c0-9.772,8.408-17.347,18.865-17.347s18.783,7.575,18.783,17.347-8.33,17.343-18.783,17.343S19073.2,3485.68,19073.2,3475.908Zm8.408,0c0,5.6,4.926,10,10.457,10,5.451,0,10.453-4.395,10.453-10s-5-10-10.453-10C19086.535,3465.909,19081.609,3470.3,19081.609,3475.908Zm-59.605,0c0-9.772,7.949-17.347,18.406-17.347,5.527,0,10.982,2.2,15.676,7.724l-6.969,4.925c-2.5-3.561-5.377-5-8.707-5a9.732,9.732,0,0,0-9.771,9.7c0,5.45,4.77,9.7,10.148,9.7,3.334,0,6.287-1.441,8.861-4.7l6.818,4.621c-4.693,5.527-10.148,7.724-15.68,7.724C19030.334,3493.251,19022,3485.753,19022,3475.908Zm162.553,16.663V3473.86c0-7.956,6.063-14.62,15.906-14.62v7.8c-4.24,0-7.271,2.578-7.271,7.879v17.651Zm-124.23,0V3445h8.713v47.57Z" transform="translate(-16315.777 -3445)" fill="#280"/>
    <path id="Caminho_23675" data-name="Caminho 23675" d="M19052.76,3489.247v-13.489h13.484a13.486,13.486,0,1,1-13.484,13.489Zm-30.76,0a13.494,13.494,0,0,1,13.488-13.494h13.488v13.489a13.488,13.488,0,0,1-26.977,0Zm3.781,0a9.7,9.7,0,0,0,19.408,0v-9.706h-9.691A9.73,9.73,0,0,0,19025.781,3489.251Zm26.979-17.277v-13.489a13.486,13.486,0,1,1,13.484,13.489Zm-17.271,0a13.486,13.486,0,1,1,13.488-13.489v13.489Z" transform="translate(-16382.109 -3442.875)" fill="#280"/>
  </g>
</svg>
