<svg xmlns="http://www.w3.org/2000/svg" width="245.62" height="59.995" viewBox="0 0 245.62 59.995">
  <path id="logo_safrapay_darkblue" d="M12.33,37.059A7.074,7.074,0,0,1,10.2,34.539a8.189,8.189,0,0,1-.8-3.8H0a14.742,14.742,0,0,0,1.483,7.094,13.938,13.938,0,0,0,4.172,4.916,17.754,17.754,0,0,0,6.055,2.832,27.635,27.635,0,0,0,7.074.9,26.976,26.976,0,0,0,7.94-1.058,16.765,16.765,0,0,0,5.747-2.955,12.281,12.281,0,0,0,3.491-4.511A13.675,13.675,0,0,0,37.137,32.3a10.956,10.956,0,0,0-1.575-6.131,13.2,13.2,0,0,0-3.739-3.827,16.426,16.426,0,0,0-4.355-2.086l-3.429-.9-6.7-1.743a24.7,24.7,0,0,1-4.016-1.368,4.421,4.421,0,0,1-1.947-1.493,4.018,4.018,0,0,1-.493-2.117,4.19,4.19,0,0,1,.618-2.365,5.38,5.38,0,0,1,1.575-1.556,6.277,6.277,0,0,1,2.133-.871,11.345,11.345,0,0,1,2.347-.25,16.5,16.5,0,0,1,3.306.31,7.9,7.9,0,0,1,2.688,1.058,5.486,5.486,0,0,1,1.885,2.055,7.924,7.924,0,0,1,.834,3.3h9.392a13.744,13.744,0,0,0-1.452-6.565A12.729,12.729,0,0,0,30.281,3.3,16.512,16.512,0,0,0,24.626.778,27.9,27.9,0,0,0,17.983,0a22.509,22.509,0,0,0-5.932.809A16.512,16.512,0,0,0,6.737,3.3a13.217,13.217,0,0,0-3.8,4.2,11.7,11.7,0,0,0-1.452,5.944,10.9,10.9,0,0,0,1.144,5.2,10.992,10.992,0,0,0,3,3.579,16.489,16.489,0,0,0,4.2,2.333,41.794,41.794,0,0,0,4.819,1.524l4.758,1.246a29.741,29.741,0,0,1,4.2,1.306,9.045,9.045,0,0,1,3,1.867,3.913,3.913,0,0,1,1.142,2.924,4.312,4.312,0,0,1-.866,2.77A6.1,6.1,0,0,1,24.72,37.9a9.568,9.568,0,0,1-2.78.84,19.161,19.161,0,0,1-2.78.218,14.659,14.659,0,0,1-3.708-.466,9.218,9.218,0,0,1-3.121-1.431Zm145.443-3.1a13.862,13.862,0,0,1,0-9.066,10.465,10.465,0,0,1,5.7-6.088,12,12,0,0,1,9.084,0,10.465,10.465,0,0,1,5.7,6.088,13.862,13.862,0,0,1,0,9.066,10.465,10.465,0,0,1-5.7,6.088,11.976,11.976,0,0,1-9.084,0,10.465,10.465,0,0,1-5.7-6.088Zm-.766-20.018h-5.172V60h5.172V39.418h.133a11.824,11.824,0,0,0,4.608,4.466,14.388,14.388,0,0,0,7.326,1.819,15.316,15.316,0,0,0,6.1-1.224,14.874,14.874,0,0,0,4.94-3.407,15.972,15.972,0,0,0,3.281-5.162,17.282,17.282,0,0,0,1.193-6.485,17.282,17.282,0,0,0-1.193-6.485,15.7,15.7,0,0,0-3.314-5.162,14.83,14.83,0,0,0-5.138-3.407,17.552,17.552,0,0,0-6.663-1.224,13.832,13.832,0,0,0-6.2,1.39,15.24,15.24,0,0,0-4.94,3.9h-.133v-4.5ZM228.67,54.8l1.659-3.606L245.62,13.143h-5.751l-9.406,24.287h-.135l-9.811-24.287H214.36l13.127,31.168-2.166,5.823a12.086,12.086,0,0,1-2.1,3.706,4.786,4.786,0,0,1-3.79,1.39,18.288,18.288,0,0,1-2.029-.1,6.369,6.369,0,0,1-1.692-.431l-.676,4.5a6.94,6.94,0,0,0,2.335.663l2.4.133a11.433,11.433,0,0,0,4.025-.628,8.107,8.107,0,0,0,2.842-1.788,10.9,10.9,0,0,0,2.029-2.78Zm-21.4-16.527a8.394,8.394,0,0,1-2.868,2,10,10,0,0,1-4.02.754,9.4,9.4,0,0,1-4.959-1.211,4.41,4.41,0,0,1-1.99-4.1A4.67,4.67,0,0,1,196.4,31.2a19.454,19.454,0,0,1,8.035-1.376H209.7v1.969a11.6,11.6,0,0,1-.673,3.571,8.5,8.5,0,0,1-1.758,2.916Zm15.289,1.942H215.52a.549.549,0,0,1-.558-.54V26.082q0-6.553-3.105-9.766c-2.07-2.142-5.445-3.17-10.123-3.17H181.609a17.086,17.086,0,0,1,2.3,1.942,18.929,18.929,0,0,1,2.16,2.589H203.42a8.569,8.569,0,0,1,4.22,1.852,6.179,6.179,0,0,1,2.057,5.047v.916h-2.025l-6.378.265a25.578,25.578,0,0,0-6.482,1.31,12.268,12.268,0,0,0-5.025,3.211,8.4,8.4,0,0,0-2.027,5.967,7.974,7.974,0,0,0,.942,3.93,8.655,8.655,0,0,0,2.534,2.854,11.554,11.554,0,0,0,3.713,1.737,16.96,16.96,0,0,0,4.554.591,11.928,11.928,0,0,0,10.224-5.121,5.8,5.8,0,0,0,5.815,5.117h9.236l-2.222-5.135ZM61.529,30.351a3.917,3.917,0,0,1-1.4.774,14.24,14.24,0,0,1-1.8.464l-2.016.308-2.109.31a15.947,15.947,0,0,0-1.953.5,5.782,5.782,0,0,0-1.674.836,3.977,3.977,0,0,0-1.148,1.331A4.269,4.269,0,0,0,49,36.913a4.115,4.115,0,0,0,.435,1.981,3.334,3.334,0,0,0,1.179,1.269,4.949,4.949,0,0,0,1.737.649A11.111,11.111,0,0,0,54.4,41a7.785,7.785,0,0,0,4.031-.867,5.819,5.819,0,0,0,2.109-2.074,6.64,6.64,0,0,0,.838-2.444l.154-1.981V30.349Zm-20.343-6.5a10.205,10.205,0,0,1,1.552-5.138,10.546,10.546,0,0,1,3.474-3.281,15.163,15.163,0,0,1,4.745-1.764,27.1,27.1,0,0,1,5.3-.526,36.176,36.176,0,0,1,4.9.341,14.967,14.967,0,0,1,4.528,1.331,8.942,8.942,0,0,1,3.351,2.754,7.678,7.678,0,0,1,1.3,4.673V38.893a33.292,33.292,0,0,0,.248,4.146,7.456,7.456,0,0,0,.869,2.971H62.525a12.4,12.4,0,0,1-.4-1.517,12.981,12.981,0,0,1-.216-1.579,11.471,11.471,0,0,1-4.963,3.033,19.942,19.942,0,0,1-5.83.867,15.754,15.754,0,0,1-4.281-.558,9.828,9.828,0,0,1-3.474-1.733,8.058,8.058,0,0,1-2.326-2.971,10.037,10.037,0,0,1-.838-4.271,9.31,9.31,0,0,1,.961-4.487,8.036,8.036,0,0,1,2.482-2.817A11.137,11.137,0,0,1,47.11,28.4a37.506,37.506,0,0,1,3.938-.836l3.908-.5a23.7,23.7,0,0,0,3.411-.558,5.938,5.938,0,0,0,2.357-1.084,2.372,2.372,0,0,0,.805-2.074,4.659,4.659,0,0,0-.464-2.259,3.417,3.417,0,0,0-1.24-1.3,4.893,4.893,0,0,0-1.8-.618,14.8,14.8,0,0,0-2.2-.154,6.682,6.682,0,0,0-4.094,1.115,4.968,4.968,0,0,0-1.737,3.714H41.186Zm31.759-10.3v5.844h5.32V45.354h8.887V19.394h6.133V13.55H87.152V11.644a4.028,4.028,0,0,1,.782-2.8,3.444,3.444,0,0,1,2.6-.83,27.779,27.779,0,0,1,3.253.185V1.678l-2.314-.154-2.378-.092q-5.445,0-8.137,2.708a9.442,9.442,0,0,0-2.69,6.951v2.46h-5.32Zm30.774.444v5.823h.125a10.552,10.552,0,0,1,1.69-2.7,10.934,10.934,0,0,1,2.441-2.123,12.126,12.126,0,0,1,2.942-1.365,10.925,10.925,0,0,1,3.255-.485,7.121,7.121,0,0,1,1.94.3v8.008l-1.5-.212a16.446,16.446,0,0,0-1.69-.09,9.716,9.716,0,0,0-4.131.789,7.128,7.128,0,0,0-2.723,2.154,8.455,8.455,0,0,0-1.47,3.185,16.923,16.923,0,0,0-.439,3.944V45.359H95.271V13.994h8.448Zm33.825,17.133a3.934,3.934,0,0,0,1.4-.774v3.281a17.152,17.152,0,0,1-.154,1.981,6.569,6.569,0,0,1-.838,2.444,5.8,5.8,0,0,1-2.109,2.074,7.8,7.8,0,0,1-4.031.867,11.111,11.111,0,0,1-2.047-.185,4.971,4.971,0,0,1-1.737-.651,3.314,3.314,0,0,1-1.179-1.269,4.115,4.115,0,0,1-.435-1.981,4.264,4.264,0,0,1,.435-2.043,3.977,3.977,0,0,1,1.148-1.331,5.782,5.782,0,0,1,1.674-.836,15.926,15.926,0,0,1,1.953-.5l2.109-.31,2.016-.31a14.271,14.271,0,0,0,1.8-.464Zm-17.4-12.411a10.2,10.2,0,0,0-1.552,5.138H127.4a4.964,4.964,0,0,1,1.737-3.714,6.7,6.7,0,0,1,4.094-1.115,14.981,14.981,0,0,1,2.2.154,4.893,4.893,0,0,1,1.8.618,3.408,3.408,0,0,1,1.242,1.3,4.637,4.637,0,0,1,.464,2.259,2.376,2.376,0,0,1-.807,2.074,5.965,5.965,0,0,1-2.357,1.084,23.7,23.7,0,0,1-3.411.558l-3.908.5a37.545,37.545,0,0,0-3.938.836,11.137,11.137,0,0,0-3.474,1.579,8.036,8.036,0,0,0-2.482,2.817,9.31,9.31,0,0,0-.961,4.487,10.008,10.008,0,0,0,.838,4.271,8.078,8.078,0,0,0,2.326,2.971,9.8,9.8,0,0,0,3.474,1.733,15.79,15.79,0,0,0,4.279.558,19.919,19.919,0,0,0,5.831-.867,11.484,11.484,0,0,0,4.961-3.033,12.9,12.9,0,0,0,.218,1.579,12.48,12.48,0,0,0,.4,1.517h8.932a7.477,7.477,0,0,1-.869-2.971,33.324,33.324,0,0,1-.248-4.148V22.244a7.688,7.688,0,0,0-1.3-4.673,8.921,8.921,0,0,0-3.349-2.754,15.039,15.039,0,0,0-4.528-1.331,35.821,35.821,0,0,0-4.9-.341,27.155,27.155,0,0,0-5.3.526,15.133,15.133,0,0,0-4.745,1.764,10.546,10.546,0,0,0-3.474,3.281Z" transform="translate(0 0)" fill="#00001e" fill-rule="evenodd"/>
</svg>
