<svg xmlns="http://www.w3.org/2000/svg" width="243.293" height="60" viewBox="0 0 243.293 60">
  <g id="logo-svg2" transform="translate(0 -0.002)">
    <path id="Caminho_21223" data-name="Caminho 21223" d="M36.118,18.617c-.012,2.462-.651,3.7-1.443,3.794-.518.062-1.116-.367-1.658-1.259a101.416,101.416,0,0,0-5.783-8.432.1.1,0,0,1,0-.017A39.882,39.882,0,0,1,31.514.178a42.883,42.883,0,0,1,4.6,18.439m-10.3-.143c1.939,1.738,2.47,3.128,2.036,3.882-.284.5-.992.73-2.028.607a95.128,95.128,0,0,0-10.45-.6l-.011-.016A49.724,49.724,0,0,1,7.135,9.171c6.562,1.555,13.666,4.8,18.686,9.3M19.2,27.468c2.591-.547,4.007-.1,4.325.759.209.559-.05,1.312-.784,2.113a100.351,100.351,0,0,0-6.783,8.329h-.02a50.283,50.283,0,0,1-15.755-1.1c5.194-4.6,12.234-8.669,19.016-10.1m2.96,11.093c1.133-2.412,2.343-3.32,3.175-3.067.547.164.948.826,1.1,1.89a94.808,94.808,0,0,0,1.966,9.94.067.067,0,0,0-.011.015A55.229,55.229,0,0,1,18.67,58.425,41.974,41.974,0,0,1,22.161,38.56m9.812,3.963c-1.009-2.209-.933-3.7-.249-4.225.449-.338,1.162-.273,2,.219a60.023,60.023,0,0,0,7.9,4.016.089.089,0,0,0,0,.015,43.875,43.875,0,0,1,1.308,12.707A31.775,31.775,0,0,1,31.973,42.523m8.64-5.439c-2.09-.463-3.09-1.4-3.025-2.251.042-.559.528-1.1,1.384-1.476a60.36,60.36,0,0,0,7.663-3.985l.012.006a32.163,32.163,0,0,1,8.845,6.4,26.946,26.946,0,0,1-14.879,1.3m1.711-10.26c-1.655,1.45-2.929,1.695-3.487,1.1a2.2,2.2,0,0,1-.161-2.093A93.946,93.946,0,0,0,40.8,16.556h.015A32.516,32.516,0,0,1,51.2,13.168,33.369,33.369,0,0,1,42.321,26.82" transform="translate(0.101 0.099)" fill="#146e37"/>
    <path id="Caminho_21224" data-name="Caminho 21224" d="M31.615.278A39.859,39.859,0,0,0,27.34,12.8v.017c-.55-.716-1.28-1.579-1.912-2.364-2.394-2.982-5.039-5.776-7.717-8.515A27,27,0,0,1,31.615.278M0,23.654c4.1-.5,8.213-.958,12.29-1.1,1.054-.036,2.248-.09,3.192-.091a.188.188,0,0,0-.012-.015A49.794,49.794,0,0,1,7.237,9.269,30.634,30.634,0,0,0,0,23.654M8.07,51.685c1.928-3.514,3.956-7,6.178-10.276.59-.871,1.254-1.871,1.81-2.642h-.019a50.31,50.31,0,0,1-15.752-1.1A30.486,30.486,0,0,0,8.07,51.685m24.59,7.931c-1.24-3.129-2.43-6.276-3.377-9.45-.263-.882-.572-1.909-.789-2.739,0,.006-.008.009-.011.015a55.229,55.229,0,0,1-9.713,11.08,29.145,29.145,0,0,0,13.89,1.095M51.827,45.948A65.059,65.059,0,0,1,43.961,43.5c-.725-.29-1.57-.592-2.241-.876a.09.09,0,0,0,0,.016,43.863,43.863,0,0,1,1.308,12.7,29.327,29.327,0,0,0,8.8-9.4M55.4,23.217a70.485,70.485,0,0,1-6.662,4.954c-.648.417-1.387.919-2,1.293a.031.031,0,0,0,.012.006,32.207,32.207,0,0,1,8.845,6.4A40.242,40.242,0,0,0,55.4,23.217M42.178,4.163c-.2,3.289-.432,6.583-.877,9.805-.119.872-.257,1.89-.394,2.691l.014-.006a32.6,32.6,0,0,1,10.384-3.387,29.139,29.139,0,0,0-9.127-9.1" transform="translate(0 0.001)" fill="#64c832"/>
    <path id="Caminho_21225" data-name="Caminho 21225" d="M204.664,6.128l-5.679,40.143h-7.227V41.784c-3.581,3.426-7.3,5.16-11.069,5.16a7.461,7.461,0,0,1-5.98-2.339c-2.128-2.429-2.75-6.717-1.907-13.11,1.664-11.987,6.133-14.393,12.809-14.393a59.6,59.6,0,0,1,8.344.634L195.6,6.128h9.065ZM189.076,23.713c-5.033,0-6.107.64-7.1,8-.51,3.772-.659,6.122.088,6.976a1.943,1.943,0,0,0,1.63.47c2.75-.054,4.935-1.507,7.756-4l1.591-11.442ZM107.433,17.1c-5.129,0-8.639,1.067-11.045,3.355-2.379,2.262-3.784,5.718-4.557,11.209-.775,5.455-.113,9.3,2.022,11.759C95.909,45.8,99.4,46.95,104.527,46.95a31.832,31.832,0,0,0,9.552-1.326l.234-.077.939-6.705-.6.1a63.043,63.043,0,0,1-8.671.5c-2.375,0-3.559-.291-4.22-1.042-.82-.929-.973-2.736-.533-6.24.79-6.495,2.806-7.546,7.326-7.546,1.832,0,8.671.119,8.671.119l.889-6.364a37.55,37.55,0,0,0-10.681-1.263m61.5,3.151c1.376,1.59,1.839,3.819,1.412,6.816-.882,6.043-5.115,7.544-11.661,8.006l-7.78.587c.209,3.273,1.914,3.887,5.124,3.887a97.551,97.551,0,0,0,10.528-.6l.439-.112.051.449a33.607,33.607,0,0,0,1.066,5.019l.1.339-.328.138c-3.541,1.49-9.121,2.167-12.81,2.167-5.227,0-8.823-1.19-10.991-3.629-2.21-2.488-2.969-6.37-2.321-11.872,1.3-10.725,5.436-14.343,16.39-14.343,5.416,0,8.941,1.03,10.78,3.151m-11.548,9.155c2.642-.212,3.869-.729,4.176-3.236a2.243,2.243,0,0,0-.294-1.712c-.412-.449-1.385-.541-2.823-.541-.265,0-.549,0-.848.009-4.246,0-5.295,1.45-6.127,6.046ZM142.762,17.884h-1.749c-3.319,0-6.569,1.645-10.759,5.476V17.884h-7.171l-3.969,28.387h9.077l2.2-16.326a10.257,10.257,0,0,1,6.686-3.176h1.937l.068-.308a30.924,30.924,0,0,1,3.332-7.98ZM47.476,16.6c-.759,5.857,1.286,9.321,6.843,11.583L61.656,31.1c2.329.853,2.844,1.287,2.544,3.594-.452,2.976-1.61,3.774-6.741,3.774H45l-1.108,7.794H57.826c10.858,0,14.5-2.561,15.6-10.962.679-5.3-.239-9.107-6.907-11.7l-6.931-2.645c-2.687-1-3.183-1.407-2.826-3.761.411-2.623,1.378-3.191,3.391-3.332H75.026l1.11-7.795H62.859c-9.04,0-14.166,1.675-15.383,10.523M76.2,46.271h9.019L89.19,17.884H80.171Zm13.55-32.4,1.09-7.795H81.821l-1.089,7.795Zm114.76,32.4h9.019L217.5,17.884h-9.02Zm13.554-32.4,1.089-7.795h-9.019l-1.089,7.795Z" transform="translate(24.141 3.338)" fill="#64c832"/>
  </g>
</svg>
