<svg id="Grupo_3763" data-name="Grupo 3763" xmlns="http://www.w3.org/2000/svg" width="211.387" height="59.997" viewBox="0 0 211.387 59.997">
  <g id="Grupo_3518" data-name="Grupo 3518">
    <g id="Grupo_3516" data-name="Grupo 3516">
      <path id="Caminho_19939" data-name="Caminho 19939" d="M16072.8-19855.7a19.733,19.733,0,0,1-6.111-.967l.934-3.514a10.615,10.615,0,0,0,4.921,1.221h.149a6.778,6.778,0,0,0,4.808-1.58,6.171,6.171,0,0,0,1.3-1.783,10.819,10.819,0,0,0,.8-2.281l.563-2.326a8.066,8.066,0,0,1-2.726,2.475,7.7,7.7,0,0,1-3.653.77,6.743,6.743,0,0,1-2.376-.4,4.634,4.634,0,0,1-1.681-1.109,5.3,5.3,0,0,1-1.333-3.738,11.808,11.808,0,0,1,1.238-5.359,12.283,12.283,0,0,1,1.415-2.2,13.117,13.117,0,0,1,1.816-1.828,14.4,14.4,0,0,1,2.143-1.461,15.3,15.3,0,0,1,2.365-1.074,17.024,17.024,0,0,1,2.507-.648,15.217,15.217,0,0,1,2.543-.229,22.4,22.4,0,0,1,5.725.773l-3.31,14.893c-.208.934-.423,1.74-.653,2.494a19.454,19.454,0,0,1-.8,2.129,9.906,9.906,0,0,1-2.222,3.229,8.422,8.422,0,0,1-3.394,1.889,17.054,17.054,0,0,1-4.955.621Zm3.149-20.064a10.969,10.969,0,0,0-.988,1.35,9.978,9.978,0,0,0-.75,1.545,9.661,9.661,0,0,0-.656,3.5,4.968,4.968,0,0,0,.116,1.094,2.391,2.391,0,0,0,.388.877,1.712,1.712,0,0,0,.7.57,2.554,2.554,0,0,0,1.085.2,4.736,4.736,0,0,0,3.911-2.492,15.853,15.853,0,0,0,1.976-4.863l1.022-4.242a4.474,4.474,0,0,0-1.37-.225,7.352,7.352,0,0,0-5.384,2.752Zm36.537,12.033a4.357,4.357,0,0,1-1.677-1.18,5.915,5.915,0,0,1-1.344-4.035,12.079,12.079,0,0,1,1.212-5.346,11.756,11.756,0,0,1,1.385-2.2,13.638,13.638,0,0,1,1.786-1.838,14.823,14.823,0,0,1,9.451-3.441,25.364,25.364,0,0,1,3.267.234,13.533,13.533,0,0,1,2.652.578l-2.455,10.992a33.066,33.066,0,0,0-.842,6.273h-4.972c.053-.674.257-1.807.47-3.012l.014-.062v-.016c.053-.293.107-.633.186-1.066a12.132,12.132,0,0,1-1.11,1.674,8.54,8.54,0,0,1-1.468,1.459,7.006,7.006,0,0,1-1.877,1.021,7.065,7.065,0,0,1-2.349.391,6.086,6.086,0,0,1-2.315-.395Zm4.468-12.025a9.8,9.8,0,0,0-2.358,6.289,3.484,3.484,0,0,0,.511,2.031,2.139,2.139,0,0,0,1.878.85c1.184,0,2.381-.762,3.458-2.225a15.03,15.03,0,0,0,2.357-5.4l.949-4.086a3.686,3.686,0,0,0-1.234-.2,1.111,1.111,0,0,0-.161.006v0a7.277,7.277,0,0,0-5.354,2.791Zm-65.892,12.025a4.362,4.362,0,0,1-1.667-1.182,5.907,5.907,0,0,1-1.344-4.033,11.98,11.98,0,0,1,1.205-5.346,12.625,12.625,0,0,1,1.386-2.2,13.5,13.5,0,0,1,1.791-1.838,14.806,14.806,0,0,1,9.445-3.443,24.708,24.708,0,0,1,3.267.234,13.567,13.567,0,0,1,2.654.578l-2.456,11a33.462,33.462,0,0,0-.842,6.268l-4.967,0c.049-.682.256-1.842.475-3.059v-.008c.064-.371.132-.73.19-1.09a11.411,11.411,0,0,1-1.11,1.674,8.569,8.569,0,0,1-1.467,1.459,6.806,6.806,0,0,1-1.883,1.023,7.033,7.033,0,0,1-2.342.391,6.071,6.071,0,0,1-2.3-.4Zm9.866-14.758h.01a7.257,7.257,0,0,0-5.4,2.73,9.788,9.788,0,0,0-2.362,6.291,3.489,3.489,0,0,0,.514,2.027,2.15,2.15,0,0,0,1.871.852,3.28,3.28,0,0,0,1.814-.592,6.68,6.68,0,0,0,1.65-1.631,15.1,15.1,0,0,0,2.357-5.4l.954-4.086a3.751,3.751,0,0,0-1.237-.2,1.357,1.357,0,0,0-.2,0Zm32.413,14.8h-5.143l5-23.5h9.763a8.238,8.238,0,0,1,2.366.363,6.048,6.048,0,0,1,1.932,1,4.6,4.6,0,0,1,1.3,1.576,4.577,4.577,0,0,1,.479,2.094,5.8,5.8,0,0,1-.41,2.113,6.575,6.575,0,0,1-1.129,1.9,6.469,6.469,0,0,1-1.689,1.443,5.682,5.682,0,0,1-2.106.754,6.521,6.521,0,0,1,1.563.738,5.419,5.419,0,0,1,1.213,1.09,4.672,4.672,0,0,1,.8,1.41,5.041,5.041,0,0,1,.28,1.688,6.341,6.341,0,0,1-.4,2.154,7.241,7.241,0,0,1-1.1,1.943,6.687,6.687,0,0,1-3.754,2.414v0h0a18.69,18.69,0,0,1-2.4.564,24.7,24.7,0,0,1-2.764.262h-3.794Zm.521-3.277h3.2s.718-.023,1.256-.094a6.36,6.36,0,0,0,.914-.191h0a3.89,3.89,0,0,0,2.16-1.508,4.483,4.483,0,0,0,.636-1.191,3.75,3.75,0,0,0,.232-1.291,2.715,2.715,0,0,0-1.1-2.256,3.517,3.517,0,0,0-1.186-.594,5.1,5.1,0,0,0-1.456-.2h-3.094Zm2.205-10.383h2.729s.714-.027,1.256-.094a5.845,5.845,0,0,0,.914-.182v-.021a3.88,3.88,0,0,0,2.161-1.437,4.461,4.461,0,0,0,.631-1.131,3.414,3.414,0,0,0,.23-1.207,2.367,2.367,0,0,0-.293-1.172,2.41,2.41,0,0,0-.8-.846,4.963,4.963,0,0,0-2.647-.648h-2.745Zm-69.078,13.66,5-23.5h9.694a7.542,7.542,0,0,1,2.7.486,6.3,6.3,0,0,1,2.1,1.3,5.886,5.886,0,0,1,1.357,1.891,5.541,5.541,0,0,1,.479,2.279,9.24,9.24,0,0,1-.859,4.035,7.669,7.669,0,0,1-2.258,2.744,11.1,11.1,0,0,1-6.736,2.055v.016h-4.509l-1.828,8.7H16027Zm7.675-12.146h1.76a9.267,9.267,0,0,0,4.618-.908,4.027,4.027,0,0,0,.836-.643,3.577,3.577,0,0,0,.641-.846,4.738,4.738,0,0,0,.405-1.115,6.607,6.607,0,0,0,.146-1.4,2.535,2.535,0,0,0-.205-1,2.754,2.754,0,0,0-.568-.826,4.585,4.585,0,0,0-3.189-1.168h-2.745Zm110.677,12.018h-4.837l2.07-9.734h0l.037-.172h.014a8.2,8.2,0,0,0,.28-3.064,1.95,1.95,0,0,0-.754-1.314,1.966,1.966,0,0,0-1.467-.387c-3.653-.068-4.574,4.832-4.574,4.832h0l-.112.725-1.945,9.123h-4.841l3.586-16.84.025-.7h4.591l-.558,2.98a10.45,10.45,0,0,1,2.85-2.574,7.307,7.307,0,0,1,3.4-.789s3.1-.191,4.243,1.924a5.6,5.6,0,0,1,.571,2.58,10.619,10.619,0,0,1-.091,1.482,13.853,13.853,0,0,1-.417,2.029h0l-.127.787-1.941,9.123Zm20.489,0h-5.461l-4.677-9.123-1.941,9.123h-4.838l5.365-25.215h4.844l-3.176,14.922,7.562-7.25h5.729l-8.74,8.016Zm-43.476-14.672Z" transform="translate(-15957.854 19903.975)"/>
      <g id="Grupo_3515" data-name="Grupo 3515">
        <path id="Caminho_14807" data-name="Caminho 14807" d="M29.557,0A29.557,29.557,0,0,1,59.115,29.558v.881A29.558,29.558,0,1,1,0,30.439v-.882A29.557,29.557,0,0,1,29.557,0Z"/>
        <ellipse id="Elipse_88" data-name="Elipse 88" cx="23.666" cy="23.769" rx="23.666" ry="23.769" transform="translate(5.605 1.868)" fill="#dfe560"/>
        <ellipse id="Elipse_90" data-name="Elipse 90" cx="21.59" cy="21.693" rx="21.59" ry="21.693" transform="translate(3.944 15.777)"/>
        <circle id="Elipse_91" data-name="Elipse 91" cx="19.721" cy="19.721" r="19.721" transform="translate(5.813 17.853)" fill="#a9dddb"/>
        <ellipse id="Elipse_92" data-name="Elipse 92" cx="13.805" cy="13.909" rx="13.805" ry="13.909" transform="translate(29.063 24.496)"/>
        <ellipse id="Elipse_93" data-name="Elipse 93" cx="11.937" cy="11.936" rx="11.937" ry="11.936" transform="translate(30.931 26.571)" fill="#f7df3e"/>
      </g>
    </g>
  </g>
</svg>
