<svg xmlns="http://www.w3.org/2000/svg" width="184.475" height="60" viewBox="0 0 184.475 60">
  <path id="Caminho_23865" data-name="Caminho 23865" d="M38.847,48.706h8.628V23.356H38.847Zm11.6-42.6h-5.8v5.85h5.8ZM17.87,8.956H9.539v7.35h7.736c4.909,0,7.736,2.4,7.736,6.9s-2.826,7.05-7.736,7.05H9.539v-13.8H.91v32.25H9.539v-11.1h8.181c9.969,0,15.77-5.4,15.77-14.7C33.491,14.206,27.837,8.956,17.87,8.956ZM56.252.256H38.847v17.55H56.252V.256Zm-2.826,14.55h-11.6V3.106h11.6v11.7Zm50.582-5.85H96.122v7.35h7.439c4.909,0,7.737,2.4,7.737,6.9s-2.827,7.05-7.736,7.05H96.123v-13.8H87.494v32.25h8.629v-11.1h7.885c9.967,0,15.769-5.4,15.769-14.7C119.777,14.206,113.975,8.956,104.008,8.956Zm72.451,9.3-7.439,18.9-7.438-18.9h-8.926l11.9,30.45-4.612,11.55h9.075l16.365-42h-8.926Zm-38.681-.15a28.541,28.541,0,0,0-13.686,3.45l2.677,6a18.454,18.454,0,0,1,9.075-2.7c4.166,0,6.249,1.8,6.249,5.1v.6h-8.331c-7.438,0-11.455,3.45-11.455,9.15,0,5.55,3.868,9.45,10.413,9.45a12.267,12.267,0,0,0,9.522-4.05v3.3h8.48v-19.8c-.3-6.45-4.91-10.5-12.944-10.5Zm5.058,20.4a7.165,7.165,0,0,1-6.992,4.65c-2.975,0-4.76-1.5-4.76-3.9s1.636-3.45,4.909-3.45h6.843Zm-73.343,3.6c-4.166,0-7.141-3.3-7.141-8.25,0-4.8,2.975-8.1,7.141-8.1a8.237,8.237,0,0,1,6.843,3.3l5.8-4.2c-2.679-4.05-7.29-6.45-13.093-6.45-9.075-.15-15.322,6.15-15.322,15.45s6.249,15.45,15.324,15.45c6.247,0,10.86-2.55,13.389-6.75l-5.951-4.05a7.684,7.684,0,0,1-6.992,3.6Z" transform="translate(-0.91 -0.256)" fill="#38b160"/>
</svg>
