<svg xmlns="http://www.w3.org/2000/svg" width="267.168" height="60" viewBox="0 0 267.168 60">
  <g id="Grupo_3765" data-name="Grupo 3765" transform="translate(0.001 0.035)">
    <g id="Grupo_3512" data-name="Grupo 3512">
      <path id="Caminho_19900" data-name="Caminho 19900" d="M8384.67-19438h-6.687a2.1,2.1,0,0,1-1.814-1.055l-8.884-15.426a2.039,2.039,0,0,1-.284-1.045,2.048,2.048,0,0,1,.284-1.035l8.884-15.437a2.1,2.1,0,0,1,1.814-1.043l17.765,0a2.117,2.117,0,0,1,1.817,1.045l8.886,15.438a2.043,2.043,0,0,1,.279,1.035,2.041,2.041,0,0,1-.279,1.047l-3.674,6.389h-4.383l3.677-6.391a2.1,2.1,0,0,0,0-2.088l-6.693-11.619a2.1,2.1,0,0,0-1.816-1.053l-13.39,0a2.1,2.1,0,0,0-1.811,1.049l-6.7,11.621a2.079,2.079,0,0,0,0,2.086l6.7,11.619a2.1,2.1,0,0,0,1.811,1.066l6.7,0Z" transform="translate(-8153.273 19473.008)" fill="#158ef6"/>
      <path id="Caminho_19899" data-name="Caminho 19899" d="M8395.75-19307h-17.765a2.1,2.1,0,0,1-1.814-1.059l-8.884-15.418a2.087,2.087,0,0,1-.283-1.045,2.11,2.11,0,0,1,.282-1.053l8.885-15.424a2.107,2.107,0,0,1,1.814-1.045h6.687l2.194,3.811h-6.693a2.115,2.115,0,0,0-1.812,1.045l-6.7,11.613a2.1,2.1,0,0,0,0,2.1l6.7,11.617a2.072,2.072,0,0,0,1.812,1.049h13.39a2.1,2.1,0,0,0,1.816-1.051l6.694-11.615a2.109,2.109,0,0,0,0-2.1l-3.677-6.379h4.383l3.674,6.379a2.115,2.115,0,0,1,.279,1.051,2.1,2.1,0,0,1-.278,1.047l-8.887,15.42a2.059,2.059,0,0,1-.771.777,2.114,2.114,0,0,1-1.047.277Z" transform="translate(-8166.988 19366.963)" fill="#a171fb"/>
      <path id="Caminho_19898" data-name="Caminho 19898" d="M8425.57-19438H8407.8a2.108,2.108,0,0,1-1.821-1.057l-3.01-5.225,2.189-3.8.1.184,2.908,5.039a2.116,2.116,0,0,0,1.816,1.064l13.386,0a2.124,2.124,0,0,0,1.82-1.064l6.692-11.615a2.083,2.083,0,0,0,0-2.088l-6.692-11.619a2.109,2.109,0,0,0-1.82-1.051h-13.386a2.117,2.117,0,0,0-1.816,1.049l-3.016,5.246h-4.384l5.208-9.055a2.12,2.12,0,0,1,1.82-1.043l17.767,0a2.108,2.108,0,0,1,1.815,1.047l8.884,15.436a2.016,2.016,0,0,1,.282,1.035,2.04,2.04,0,0,1-.282,1.043l-8.885,15.428a2.116,2.116,0,0,1-.768.777,2.137,2.137,0,0,1-1.042.271Z" transform="translate(-8169.38 19497.965)" fill="#17c2cc"/>
      <path id="Caminho_19901" data-name="Caminho 19901" d="M8387.29-19427.7h-.483L8367-19473h10.281l13.907,31.822,13.9-31.822h10.285l-19.808,45.338Z" transform="translate(-8367.001 19480.816)" fill="#000050"/>
      <path id="Caminho_19902" data-name="Caminho 19902" d="M8403.86-19300.1H8395.1v-9.174l8.759-6.131v15.3Z" transform="translate(-8283.477 19353.207)" fill="#158ef6"/>
      <path id="Caminho_19908" data-name="Caminho 19908" d="M8367-19473h8.76v5.352c.539-.437,1.1-.85,1.673-1.242a25.463,25.463,0,0,1,4.09-2.219,24.4,24.4,0,0,1,4.521-1.4,24.021,24.021,0,0,1,4.858-.49,23.823,23.823,0,0,1,4.853.488,24.092,24.092,0,0,1,4.524,1.4,23.534,23.534,0,0,1,2.735,1.383l-8.684,6.082a14.582,14.582,0,0,0-3.429-.4,15.287,15.287,0,0,0-15.143,13.283v.117l-8.76,6.133Z" transform="translate(-8255.376 19480.816)" fill="#000050"/>
      <path id="Caminho_19904" data-name="Caminho 19904" d="M8385.95-19425.3a23.535,23.535,0,0,1-4.454-1.406,23.159,23.159,0,0,1-4.031-2.219,23.368,23.368,0,0,1-3.51-2.953,23.664,23.664,0,0,1-2.9-3.559,24.149,24.149,0,0,1-2.185-4.1,24.285,24.285,0,0,1-1.389-4.525,24.916,24.916,0,0,1-.478-4.846,25.041,25.041,0,0,1,.479-4.859,24.126,24.126,0,0,1,1.388-4.521,24.7,24.7,0,0,1,2.185-4.1,24.82,24.82,0,0,1,2.9-3.568,24.681,24.681,0,0,1,3.512-2.945,24.353,24.353,0,0,1,4.029-2.219,23.692,23.692,0,0,1,4.454-1.4,23.271,23.271,0,0,1,4.782-.492,23.121,23.121,0,0,1,4.78.488,23.587,23.587,0,0,1,4.456,1.4,25.056,25.056,0,0,1,4.031,2.219,24.089,24.089,0,0,1,3.511,2.943,24.806,24.806,0,0,1,2.9,3.568,24.2,24.2,0,0,1,2.189,4.1,24.44,24.44,0,0,1,1.382,4.525,24.359,24.359,0,0,1,.482,4.857,24.967,24.967,0,0,1-.309,3.893h-37.831a14.989,14.989,0,0,0,14.41,11.246c5.407,0,12.47-2.422,15.105-7.232l7.015,5.625c-.149.461-4.553,5.045-9.757,7.994a23.237,23.237,0,0,1-6.359,2.078,36.977,36.977,0,0,1-6,.49,23.747,23.747,0,0,1-4.788-.482Zm18.908-28.463a14.954,14.954,0,0,0-14.126-10.291,14.955,14.955,0,0,0-14.126,10.289Z" transform="translate(-8314.443 19479.104)" fill="#000050"/>
      <path id="Caminho_19907" data-name="Caminho 19907" d="M8581.19-19369a24.112,24.112,0,0,1-4.854-.488,23.5,23.5,0,0,1-4.525-1.4,24.422,24.422,0,0,1-4.086-2.221,24.544,24.544,0,0,1-3.569-2.943,24.73,24.73,0,0,1-2.942-3.572,23.928,23.928,0,0,1-2.221-4.082,24.228,24.228,0,0,1-1.4-4.523,24.425,24.425,0,0,1-.491-4.863,24.383,24.383,0,0,1,.492-4.857,24.418,24.418,0,0,1,1.269-4.2l21.452-15.035h.88a23.88,23.88,0,0,1,4.858.488,23.82,23.82,0,0,1,4.523,1.4,24.487,24.487,0,0,1,4.09,2.227,24.02,24.02,0,0,1,3.569,2.943,23.441,23.441,0,0,1,2.938,3.568,24.224,24.224,0,0,1,2.224,4.09,23.93,23.93,0,0,1,1.4,4.52,24.064,24.064,0,0,1,.492,4.855,24.16,24.16,0,0,1-.492,4.865,23.987,23.987,0,0,1-1.4,4.525,24.492,24.492,0,0,1-2.224,4.08,24.488,24.488,0,0,1-2.938,3.574,24.784,24.784,0,0,1-3.57,2.943,24.168,24.168,0,0,1-4.091,2.217,23.652,23.652,0,0,1-4.521,1.4A24.2,24.2,0,0,1,8581.19-19369Zm0-39.229a15.152,15.152,0,0,0-15.138,15.133,15.145,15.145,0,0,0,15.138,15.139,15.152,15.152,0,0,0,15.144-15.137,15.15,15.15,0,0,0-4.417-10.746,15.149,15.149,0,0,0-10.728-4.461Z" transform="translate(-8414.612 19423.311)" fill="#158ef6"/>
    </g>
  </g>
</svg>
